<svg width="121" height="124" viewBox="0 0 121 124" fill="none" xmlns="http://www.w3.org/2000/svg">
<path fill-rule="evenodd" clip-rule="evenodd" d="M60.4878 52.9268C73.0152 52.9268 83.1707 35.2104 83.1707 22.6829C83.1707 10.1555 73.0152 0 60.4878 0C47.9604 0 37.8049 10.1555 37.8049 22.6829C37.8049 35.2104 47.9604 52.9268 60.4878 52.9268ZM22.6829 84.6829C35.2104 84.6829 52.9268 74.5274 52.9268 62C52.9268 49.4726 35.2104 39.3171 22.6829 39.3171C10.1555 39.3171 0 49.4726 0 62C0 74.5274 10.1555 84.6829 22.6829 84.6829ZM120.976 62C120.976 74.5274 110.82 84.6829 98.2927 84.6829C85.7653 84.6829 68.0488 74.5274 68.0488 62C68.0488 49.4726 85.7653 39.3171 98.2927 39.3171C110.82 39.3171 120.976 49.4726 120.976 62ZM60.5 124C72.9264 124 83 114.113 83 101.917C83 89.7204 72.9264 72 60.5 72C48.0736 72 38 89.7204 38 101.917C38 114.113 48.0736 124 60.5 124Z" fill="white"/>
</svg>
