<svg width="19" height="19" viewBox="0 0 19 19" fill="none" xmlns="http://www.w3.org/2000/svg">
<g clip-path="url(#clip0_1360_2581)">
<path d="M9.5 17.8125C7.29539 17.8125 5.18107 16.9367 3.62217 15.3778C2.06328 13.8189 1.1875 11.7046 1.1875 9.5C1.1875 7.29539 2.06328 5.18107 3.62217 3.62217C5.18107 2.06328 7.29539 1.1875 9.5 1.1875C11.7046 1.1875 13.8189 2.06328 15.3778 3.62217C16.9367 5.18107 17.8125 7.29539 17.8125 9.5C17.8125 11.7046 16.9367 13.8189 15.3778 15.3778C13.8189 16.9367 11.7046 17.8125 9.5 17.8125ZM9.5 19C12.0196 19 14.4359 17.9991 16.2175 16.2175C17.9991 14.4359 19 12.0196 19 9.5C19 6.98044 17.9991 4.56408 16.2175 2.78249C14.4359 1.00089 12.0196 0 9.5 0C6.98044 0 4.56408 1.00089 2.78249 2.78249C1.00089 4.56408 0 6.98044 0 9.5C0 12.0196 1.00089 14.4359 2.78249 16.2175C4.56408 17.9991 6.98044 19 9.5 19Z" fill="#ABABAB"/>
<path d="M6.24036 6.87087C6.23874 6.90922 6.24498 6.9475 6.25869 6.98335C6.2724 7.0192 6.29331 7.05187 6.32011 7.07934C6.34692 7.10681 6.37906 7.12851 6.41456 7.1431C6.45006 7.15769 6.48817 7.16487 6.52655 7.16419H7.50624C7.67011 7.16419 7.80074 7.03 7.82211 6.86731C7.92899 6.08831 8.46336 5.52069 9.41574 5.52069C10.2304 5.52069 10.9761 5.928 10.9761 6.90769C10.9761 7.66175 10.532 8.0085 9.83018 8.53575C9.03099 9.11644 8.39805 9.7945 8.44318 10.8953L8.44674 11.153C8.44799 11.2309 8.47981 11.3052 8.53535 11.3599C8.59089 11.4145 8.66569 11.4451 8.74361 11.4451H9.70668C9.78541 11.4451 9.86092 11.4138 9.9166 11.3582C9.97227 11.3025 10.0036 11.227 10.0036 11.1482V11.0236C10.0036 10.1709 10.3277 9.92275 11.2029 9.25894C11.9261 8.70912 12.6802 8.09875 12.6802 6.81744C12.6802 5.02313 11.1649 4.15625 9.50599 4.15625C8.00143 4.15625 6.35318 4.85687 6.24036 6.87087ZM8.0893 13.7144C8.0893 14.3474 8.59399 14.8152 9.28868 14.8152C10.0119 14.8152 10.5094 14.3474 10.5094 13.7144C10.5094 13.0589 10.0107 12.5982 9.28749 12.5982C8.59399 12.5982 8.0893 13.0589 8.0893 13.7144Z" fill="#ABABAB"/>
</g>
<defs>
<clipPath id="clip0_1360_2581">
<rect width="19" height="19" fill="white"/>
</clipPath>
</defs>
</svg>
