<svg width="19" height="19" viewBox="0 0 19 19" fill="none" xmlns="http://www.w3.org/2000/svg">
<path fill-rule="evenodd" clip-rule="evenodd" d="M9.26829 8.10976C11.1878 8.10976 12.7439 5.39514 12.7439 3.47561C12.7439 1.55608 11.1878 0 9.26829 0C7.34877 0 5.79268 1.55608 5.79268 3.47561C5.79268 5.39514 7.34877 8.10976 9.26829 8.10976ZM3.47561 12.9756C5.39514 12.9756 8.10976 11.4195 8.10976 9.5C8.10976 7.58047 5.39514 6.02439 3.47561 6.02439C1.55608 6.02439 0 7.58047 0 9.5C0 11.4195 1.55608 12.9756 3.47561 12.9756ZM18.5366 9.5C18.5366 11.4195 16.9805 12.9756 15.061 12.9756C13.1414 12.9756 10.4268 11.4195 10.4268 9.5C10.4268 7.58047 13.1414 6.02439 15.061 6.02439C16.9805 6.02439 18.5366 7.58047 18.5366 9.5ZM9.26829 19C11.1878 19 12.7439 17.4439 12.7439 15.5244C12.7439 13.6049 11.1878 10.6585 9.26829 10.6585C7.34877 10.6585 5.79268 13.6049 5.79268 15.5244C5.79268 17.4439 7.34877 19 9.26829 19Z" fill="#767676"/>
</svg>
