<svg width="28" height="29" viewBox="0 0 28 29" fill="none" xmlns="http://www.w3.org/2000/svg">
<path fill-rule="evenodd" clip-rule="evenodd" d="M13.9634 12.218C16.8553 12.218 19.1997 8.1282 19.1997 5.23628C19.1997 2.34436 16.8553 0 13.9634 0C11.0715 0 8.72713 2.34436 8.72713 5.23628C8.72713 8.1282 11.0715 12.218 13.9634 12.218ZM5.23628 19.5488C8.1282 19.5488 12.218 17.2044 12.218 14.3125C12.218 11.4206 8.1282 9.07622 5.23628 9.07622C2.34436 9.07622 0 11.4206 0 14.3125C0 17.2044 2.34436 19.5488 5.23628 19.5488ZM27.9268 14.3125C27.9268 17.2044 25.5825 19.5488 22.6905 19.5488C19.7986 19.5488 15.7088 17.2044 15.7088 14.3125C15.7088 11.4206 19.7986 9.07622 22.6905 9.07622C25.5825 9.07622 27.9268 11.4206 27.9268 14.3125ZM13.9634 28.625C16.8553 28.625 19.1997 26.2806 19.1997 23.3887C19.1997 20.4968 16.8553 16.0579 13.9634 16.0579C11.0715 16.0579 8.72713 20.4968 8.72713 23.3887C8.72713 26.2806 11.0715 28.625 13.9634 28.625Z" fill="#7544C6"/>
</svg>
